<?xml version="1.0" encoding="utf-8"?>
<!-- Generator: Adobe Illustrator 19.1.1, SVG Export Plug-In . SVG Version: 6.00 Build 0)  -->
<svg version="1.1" id="Ebene_1" xmlns="http://www.w3.org/2000/svg" xmlns:xlink="http://www.w3.org/1999/xlink" x="0px" y="0px"
	 viewBox="0 0 960 560" enable-background="new 0 0 960 560" xml:space="preserve">
<path d="M419.9,254.2c-3.2-0.2-6.2-0.1-9.1-0.6c-16.9-2.4-27.2-14.2-29.9-32c-3.8-25.8,7.5-44.1,27.5-58.4
	c14.1-10.1,30.4-14.7,47.2-17.8c32-6,60.9,0.8,86.5,20.7c17.9,13.9,29.8,32.3,36.5,53.7c7.5,23.8-5.1,47.2-29.2,55
	c-12.6,4.1-25.4,6.3-38.8,3.6c-14.7-3-29.1,0.3-43.5,2.9c-5.2,0.9-10.7,0.8-15.9,0.5C432.7,280.4,424.4,273.1,419.9,254.2z
	 M393.7,225.9c2.6,11.4,14.4,19.9,24.8,17.1c1.3-0.4,3.2-2.7,3-3.9c-0.1-1.5-2-3-3.4-4c-0.8-0.5-2.3,0-3.4,0
	c-3.2-0.1-6.1-1.5-5.7-4.8c0.3-2.2,2.5-5.4,4.5-6c5.9-1.7,11.6-0.4,15.9,4.5c4.7,5.3,5,11.2,2.5,17.7c-3.4,8.9,1.6,19.7,9.7,21.1
	c2.2-12.7,9.3-21,22.3-23.1c-0.2-8.5-4.3-11.3-11.1-8c-3.6,1.8-6.6,1.4-8.5-2.2c-1.7-3.4-0.1-6,3-8c10.4-6.5,24.9-1,27.3,11.1
	c1.1,6,2.8,10.2,8.3,13.2c3.8,2.1,4.3,6.3,1.9,8.9c-2.8,3-5.7,2.5-8.8,0c-4.5-3.7-9.5-4.7-14.9-2c-5.5,2.7-7.4,7.6-7.8,13.8
	c4.1,0,8,0.7,11.6-0.1c13.6-2.9,27.2-4.2,41.1-3.2c8.2,0.5,16.6,0.6,24.8-0.3c9.2-1,18.2-3.2,25.7-9c-4-2.7-8.5-4.8-11.6-8.1
	c-3.4-3.6-6.8-4.5-11.4-4c-6.5,0.6-7.6,1.9-5.2,8c1.2,3.1,1.3,6.1-2.1,7.7c-3.5,1.6-6.4,0.7-8.4-2.9c-5-9-1.1-20,8.6-23.4
	c3.1-1.1,6.4-1.4,9-1.9c0.9-4.9,1.4-9.5,2.6-14c0.9-3.6,3.7-5.2,7.3-4.1c3.5,1.1,4.2,4,3.5,7.3c-0.3,1.5-0.9,2.9-1.1,4.3
	c-1.3,9,4.8,17.5,13.4,19.4c3.4,0.7,5.2,0,6.3-3.5c2.1-7.1,2.2-14.1-0.1-21.1c-4.6-13.9-11.5-26.6-21.7-37.2
	c-5.5-5.8-11.8-10.8-18.3-16.6c-1.1,5.9-1.5,10.4-3,14.6c-1.1,3.2-1,5.1,1,8c9.7,13.1,4.1,30.7-10.9,35.3c-3.5,1.1-6.1,0-7.3-3.2
	c-1.2-3.1-0.3-5.9,3.1-7.4c0.8-0.3,1.6-0.6,2.3-1c7.3-3.6,8.7-11.4,3.1-17.7c-9.4,5.5-16.4,8-23.3,7.4c-2-0.2-4.6-1.5-5.5-3.1
	c-0.9-1.4-0.6-4.6,0.6-5.8c1.3-1.4,4-2,6.2-2.2c15.2-0.9,24.8-14.3,20.3-28.7c-0.4-1.4-1.5-3.2-2.8-3.7c-14.5-5.9-29.5-9-45.2-5.7
	c-1.7,11.4,2,16.8,12.5,18.6c3.5,0.6,5.6,2.6,5.3,6c-0.3,3.5-2.6,5.1-6.1,5.1c-10.2,0.2-20.1-7.3-22.6-17.7
	c-0.8-3.3-0.9-6.9-1.4-10.6c-12.8,2.6-25,6.2-36.5,13.9c1.4,0.7,2.1,1.1,2.9,1.4c7.4,3.7,13,8.7,15.4,17.2
	c2.5,8.9,11.8,11.4,18.9,5.5c3.1-2.6,6.2-3.1,8.7,0.2c2.4,3.1,1.6,6.6-1.7,8.6c-2.9,1.8-6.2,3.6-9.5,4.1c-4.8,0.7-9.8,0.2-14.6,0.2
	c-0.6,1.6-0.9,2.9-1.5,4.1c-1.7,3.8-5.2,5.5-8.5,3.9c-3.6-1.8-3.9-4.8-2.3-8.1c5.6-11.2-2.1-25-16.1-26.6c-1.6-0.2-3.5-0.1-4.7,0.6
	c-7.4,4.7-13.8,21.6-11.7,30.8c7.1,0.4,10.5-2.2,11.6-9.3c0.6-4,2.5-6.2,6.6-5.7c4,0.5,5,3.4,4.7,7c-0.5,6.7-3.2,12.4-9,15.9
	C402.6,223.1,398,224.2,393.7,225.9z"/>
<path d="M514,326.6c0-7,0-13.1,0-20.3c14.8,8.6,29,16.7,43.7,25.2c-14.7,8.5-28.7,16.6-43.5,25.1c0-7,0-13.2,0-20.1
	c-38.9,0-77.2,0-115.7,0c0-3.6,0-6.5,0-9.9C436.9,326.6,475.2,326.6,514,326.6z"/>
<path d="M443.3,391.5c0,6.8,0,13,0,20.3c-15-8.6-29.1-16.8-43.8-25.2c14.6-8.4,28.7-16.6,43.6-25.2c0,7.1,0,13.3,0,20.1
	c38.9,0,77.1,0,115.6,0c0,3.5,0,6.4,0,10.1C520.4,391.5,482,391.5,443.3,391.5z"/>
<path d="M683.3,277.5c-25.5-25.5-50.6-50.6-76-75.9c2.9-2.5,5.3-4.5,7.3-6.1c26.9,26.8,54.5,54.5,81.7,81.6
	c-27.6,27.6-55.6,55.6-83.8,83.8c-1.6-1.7-3.6-4-6-6.6C632,328.9,657.7,303.2,683.3,277.5z"/>
<path d="M270.7,278.2c26.1,26.1,51.3,51.3,76.9,76.8c-2.5,2.1-4.9,4.2-7.1,6c-27.4-27.4-55-55-82.5-82.5
	c27.8-27.8,55.8-55.8,84.1-84.1c1.6,2,3.6,4.4,5.5,6.9C322.5,226.4,296.9,252,270.7,278.2z"/>
<path fill="#FFFFFF" d="M393.7,225.9c4.3-1.7,9-2.8,12.8-5.2c5.7-3.5,8.5-9.2,9-15.9c0.2-3.5-0.7-6.5-4.7-7c-4.1-0.5-6,1.7-6.6,5.7
	c-1.1,7-4.5,9.6-11.6,9.3c-2-9.1,4.3-26,11.7-30.8c1.2-0.8,3.2-0.8,4.7-0.6c14,1.6,21.7,15.3,16.1,26.6c-1.6,3.2-1.3,6.3,2.3,8.1
	c3.2,1.6,6.8-0.1,8.5-3.9c0.5-1.2,0.9-2.5,1.5-4.1c4.8,0,9.8,0.5,14.6-0.2c3.3-0.5,6.6-2.3,9.5-4.1c3.3-2.1,4.1-5.5,1.7-8.6
	c-2.5-3.3-5.6-2.7-8.7-0.2c-7.1,5.9-16.4,3.4-18.9-5.5c-2.4-8.5-8-13.5-15.4-17.2c-0.7-0.4-1.4-0.7-2.9-1.4
	c11.5-7.7,23.7-11.3,36.5-13.9c0.5,3.8,0.6,7.3,1.4,10.6c2.5,10.4,12.4,17.9,22.6,17.7c3.6-0.1,5.9-1.7,6.1-5.1
	c0.3-3.5-1.8-5.5-5.3-6c-10.5-1.8-14.2-7.2-12.5-18.6c15.7-3.3,30.7-0.2,45.2,5.7c1.2,0.5,2.3,2.3,2.8,3.7
	c4.5,14.5-5.1,27.8-20.3,28.7c-2.2,0.1-4.9,0.7-6.2,2.2c-1.1,1.2-1.4,4.4-0.6,5.8c1,1.6,3.5,3,5.5,3.1c6.9,0.6,13.9-1.9,23.3-7.4
	c5.6,6.3,4.2,14.1-3.1,17.7c-0.7,0.4-1.5,0.6-2.3,1c-3.4,1.5-4.3,4.3-3.1,7.4c1.2,3.2,3.8,4.3,7.3,3.2c15-4.6,20.6-22.2,10.9-35.3
	c-2.1-2.8-2.2-4.8-1-8c1.5-4.2,1.9-8.7,3-14.6c6.5,5.8,12.8,10.8,18.3,16.6c10.1,10.6,17.1,23.3,21.7,37.2c2.3,7,2.2,14,0.1,21.1
	c-1,3.5-2.8,4.3-6.3,3.5c-8.7-1.9-14.7-10.4-13.4-19.4c0.2-1.5,0.8-2.9,1.1-4.3c0.7-3.3,0-6.2-3.5-7.3c-3.6-1.1-6.4,0.6-7.3,4.1
	c-1.1,4.5-1.7,9.1-2.6,14c-2.7,0.5-6,0.8-9,1.9c-9.8,3.4-13.7,14.4-8.6,23.4c2,3.6,4.9,4.5,8.4,2.9c3.4-1.6,3.3-4.6,2.1-7.7
	c-2.4-6.2-1.3-7.4,5.2-8c4.6-0.5,8,0.4,11.4,4c3.1,3.3,7.5,5.3,11.6,8.1c-7.5,5.7-16.5,7.9-25.7,9c-8.2,0.9-16.6,0.9-24.8,0.3
	c-13.9-0.9-27.6,0.3-41.1,3.2c-3.6,0.8-7.5,0.1-11.6,0.1c0.5-6.2,2.3-11.1,7.8-13.8c5.4-2.7,10.4-1.6,14.9,2c3,2.5,5.9,3.1,8.8,0
	c2.4-2.6,2-6.8-1.9-8.9c-5.5-3-7.2-7.3-8.3-13.2c-2.3-12.1-16.8-17.6-27.3-11.1c-3.1,1.9-4.7,4.6-3,8c1.8,3.6,4.8,3.9,8.5,2.2
	c6.8-3.3,10.9-0.5,11.1,8c-13,2.2-20.1,10.4-22.3,23.1c-8.1-1.5-13.1-12.3-9.7-21.1c2.5-6.5,2.2-12.4-2.5-17.7
	c-4.3-4.9-10-6.2-15.9-4.5c-2,0.6-4.2,3.7-4.5,6c-0.4,3.3,2.5,4.7,5.7,4.8c1.2,0,2.7-0.5,3.4,0c1.4,1,3.3,2.5,3.4,4
	c0.1,1.2-1.7,3.6-3,3.9C408,245.8,396.2,237.3,393.7,225.9z"/>
</svg>
